<?xml version="1.0"?>
<svg width="256" height="256" xmlns="http://www.w3.org/2000/svg" xmlns:svg="http://www.w3.org/2000/svg">
 <g class="layer">
  <title>Layer 1</title>
  <text fill="rgb(7, 124, 220)" font-family="SAP-Icons" font-size="28px" id="svg_1" transform="matrix(1.4853 0 0 1.50668 -70.3633 45.82)" x="118" y="100"></text>
  <g fill="#077cdc" id="svg_2" transform="matrix(1, 0, 0, 1, -447.064453, -31.996616)">
   <path d="m523,180.35a41.74,41.74 0 0 1 -14.17,-2.18a24.56,24.56 0 0 1 -15.68,-16.17a42.57,42.57 0 0 1 -1.87,-13l0,-48.61l17.33,0l0,48.15q0,8.61 3.45,13.18t11.24,4.57q7.62,0 11,-4.57t3.39,-13.18l0,-48.15l17,0l0,48.46a43,43 0 0 1 -1.86,13.1a25.67,25.67 0 0 1 -5.74,9.94a25,25 0 0 1 -9.88,6.28a41.92,41.92 0 0 1 -14.21,2.18z" id="svg_3"/>
   <path d="m570.47,179.05l0,-78.66l17.22,0l0,78.66l-17.22,0z" id="svg_4"/>
   <path d="m627.75,180.56a45.88,45.88 0 0 1 -16.89,-2.83a42.31,42.31 0 0 1 -12.53,-7.6l8.72,-11.37a32.46,32.46 0 0 0 9,5.76a26.23,26.23 0 0 0 10.71,2.28q7.85,0 11.39,-3.91a14.29,14.29 0 0 0 3.56,-10q0,-6.69 -3.45,-10.46t-10.15,-3.76a16.54,16.54 0 0 0 -7.7,1.89a21.68,21.68 0 0 0 -6.72,5.63l-11.16,-3.47l3.17,-42.34l47.73,0l-0.88,13.07l-33.62,0l-1.51,17.44a17.86,17.86 0 0 1 5.92,-3.4a28.31,28.31 0 0 1 10,-1.48a28.94,28.94 0 0 1 11,2a22.73,22.73 0 0 1 8,5.42a22.5,22.5 0 0 1 4.88,8.28a32.85,32.85 0 0 1 1.63,10.59a30.1,30.1 0 0 1 -2.12,11.46a25,25 0 0 1 -6.15,8.93a28.06,28.06 0 0 1 -9.84,5.81a38.57,38.57 0 0 1 -12.99,2.06z" id="svg_5"/>
  </g>
  <text fill="rgb(51, 51, 51)" font-family="Helvetica" font-size="100px" id="svg_6" transform="matrix(1 0 0 1 0 0)" x="11" y="128">{
   <tspan dy="1em" id="svg_7" x="11.387001" y="85">​</tspan></text>
  <text fill="rgb(51, 51, 51)" font-family="Helvetica" font-size="100px" id="svg_8" transform="matrix(1 0 0 1 0 0)" x="207" y="128">}</text>
 </g>
</svg>